# xmcd
#
# Track frame offsets:
#	150
#	19432
#	37677
#	55315
#	73172
#	92495
#	109245
#	127895
#	145922
#	162157
#	182860
#	197712
#	216212
#	232650
#	249212
#	267307
#	283385
#	300747
#	315347
#
# Disc length: 4404 seconds
#
# Revision: 1
# Processed by: cddbd v1.5PL3 Copyright (c) Steve Scherf et al.
# Submitted via: CDex 1.50Beta5
#
DISCID=0c113213
DTITLE=渡辺美奈代 - 渡辺美奈代ベスト・セレクション
DYEAR=1900
DGENRE=Pop
TTITLE0=瞳に約束
TTITLE1=少しおませな恋
TTITLE2=雪の帰り道
TTITLE3=TOO ADULT
TTITLE4=カメオのコンパクト
TTITLE5=PINKのCHAO
TTITLE6=いじめないで
TTITLE7=アマリリス
TTITLE8=ガールズ オン ザ ルーフ
TTITLE9=両手いっぱいのメモリー
TTITLE10=ちょっとFallin'Love
TTITLE11=ほめてよ Hold Me Tight
TTITLE12=抱いてあげる
TTITLE13=Tururu
TTITLE14=いいじゃない
TTITLE15=ラストダンスはあなたに
TTITLE16=愛がなくちゃ、ネッ!
TTITLE17=キッスの蕾
TTITLE18=WinterスプリングSummerフォール
EXTD=
EXTT0=
EXTT1=
EXTT2=
EXTT3=
EXTT4=
EXTT5=
EXTT6=
EXTT7=
EXTT8=
EXTT9=
EXTT10=
EXTT11=
EXTT12=
EXTT13=
EXTT14=
EXTT15=
EXTT16=
EXTT17=
EXTT18=
PLAYORDER=
